<svg width="125" height="125" viewBox="0 0 125 125" fill="none" xmlns="http://www.w3.org/2000/svg">
<path d="M79.5832 107.404C74.6923 107.404 70.7277 103.44 70.7277 98.549C70.7277 93.6584 74.6923 89.6935 79.5832 89.6935C84.4738 89.6935 88.4384 93.6584 88.4384 98.549C88.4384 103.44 84.4738 107.404 79.5832 107.404Z" fill="#FF7553"/>
<path d="M30.8798 107.404C25.9889 107.404 22.0243 103.44 22.0243 98.549C22.0243 93.6584 25.9889 89.6935 30.8798 89.6935C35.7704 89.6935 39.735 93.6584 39.735 98.549C39.735 103.44 35.7704 107.404 30.8798 107.404Z" fill="#FF7553"/>
<path fill-rule="evenodd" clip-rule="evenodd" d="M18.8521 32.1338H88.1996L90.7178 21.2775C91.1832 19.2709 92.2223 17.6268 93.8351 16.3453C95.4479 15.0638 97.2842 14.4231 99.3441 14.4231H106.149C108.595 14.4231 110.577 16.4054 110.577 18.8508C110.577 21.2961 108.595 23.2784 106.149 23.2784H99.3441L97.2901 32.1338H97.2939L85.8905 81.8287C85.6597 82.8345 85.1408 83.6587 84.3336 84.3017C83.5264 84.9444 82.6069 85.2659 81.575 85.2659H30.0282C29.0141 85.2659 28.1073 84.9543 27.3074 84.3311C26.5075 83.7083 25.9835 82.9051 25.735 81.9216L14.5592 37.6451C14.3921 36.9833 14.3789 36.3183 14.5192 35.6504C14.6598 34.9824 14.9399 34.3791 15.3594 33.8406C15.7788 33.3021 16.2951 32.883 16.9086 32.5833C17.5216 32.2836 18.1695 32.1338 18.8521 32.1338Z" fill="url(#paint0_linear_2_26)"/>
<g style="mix-blend-mode:hard-light">
<g style="mix-blend-mode:hard-light">
<path fill-rule="evenodd" clip-rule="evenodd" d="M83.6639 46.6283C83.7054 46.4574 83.7366 46.2843 83.7889 46.1097C83.7889 45.9348 83.7889 45.7593 83.7889 45.5833C83.7889 44.3607 83.3567 43.3171 82.4921 42.4525C81.6276 41.588 80.5839 41.1557 79.3612 41.1557C78.3398 41.1557 77.4276 41.4713 76.6247 42.1026C75.8218 42.7339 75.2999 43.5458 75.0586 44.5385L68.6403 70.9646C68.5989 71.1355 68.567 71.3101 68.5463 71.4847C68.5252 71.6596 68.5147 71.8351 68.5147 72.0111C68.5147 73.2338 68.9471 74.2774 69.8116 75.1418C70.6761 76.0063 71.7196 76.4387 72.9423 76.4387C73.9639 76.4387 74.8759 76.1232 75.6791 75.4919C76.482 74.8606 77.0039 74.0487 77.2449 73.0562L83.6639 46.6283ZM57.5706 44.6485C57.8116 43.6558 58.3338 42.8439 59.1367 42.2126C59.9396 41.5813 60.8519 41.2657 61.8732 41.2657C63.0959 41.2657 64.1394 41.6979 65.0042 42.5625C65.8687 43.4271 66.3008 44.4707 66.3008 45.6932C66.3008 45.8693 66.2906 46.0448 66.2695 46.2197C66.2485 46.3943 66.2172 46.5673 66.1758 46.7383L59.7569 73.1662C59.5159 74.1587 58.994 74.9706 58.1908 75.6019C57.3879 76.2332 56.4757 76.5487 55.4543 76.5487C54.2317 76.5487 53.1881 76.1163 52.3236 75.2518C51.4591 74.3873 51.0267 73.3438 51.0267 72.1211C51.0267 71.945 51.0373 71.7695 51.058 71.5947C51.079 71.4201 51.1103 71.247 51.1517 71.076L57.5706 44.6485Z" fill="white" fill-opacity="0.6"/>
</g>
</g>
<defs>
<linearGradient id="paint0_linear_2_26" x1="110.577" y1="14.4231" x2="51.3389" y2="103.548" gradientUnits="userSpaceOnUse">
<stop stop-color="#FF7553"/>
<stop offset="1" stop-color="#FF4953"/>
</linearGradient>
</defs>
</svg>
