<svg width="24" height="24" viewBox="0 0 24 24" fill="none" xmlns="http://www.w3.org/2000/svg">
<circle cx="12" cy="12" r="12" fill="url(#paint0_linear_7_55)"/>
<path d="M17.9689 10.53C18.251 11.7106 18.1766 12.9483 17.7552 14.0866C17.3339 15.2249 16.5844 16.2126 15.6016 16.925C14.6189 17.6373 13.4469 18.0423 12.234 18.0886C11.0211 18.1349 9.82173 17.8205 8.78752 17.1851C7.7533 16.5498 6.93072 15.622 6.42378 14.5191C5.91685 13.4163 5.74834 12.1879 5.93955 10.9892C6.13077 9.79062 6.67312 8.67561 7.49804 7.78522C8.32295 6.89483 9.39337 6.26905 10.5739 5.98702C12.157 5.60883 13.8255 5.875 15.2123 6.72697C16.5991 7.57895 17.5907 8.94694 17.9689 10.53Z" fill="url(#paint1_radial_7_55)"/>
<mask id="mask0_7_55" style="mask-type:luminance" maskUnits="userSpaceOnUse" x="5" y="5" width="14" height="14">
<path d="M17.9689 10.53C18.251 11.7106 18.1766 12.9483 17.7552 14.0866C17.3339 15.2249 16.5844 16.2126 15.6016 16.925C14.6189 17.6373 13.4469 18.0423 12.234 18.0886C11.0211 18.1349 9.82173 17.8205 8.78752 17.1851C7.7533 16.5498 6.93072 15.622 6.42378 14.5191C5.91685 13.4163 5.74834 12.1879 5.93955 10.9892C6.13077 9.79062 6.67312 8.67561 7.49804 7.78522C8.32295 6.89483 9.39337 6.26905 10.5739 5.98702C12.157 5.60883 13.8255 5.875 15.2123 6.72697C16.5991 7.57895 17.5907 8.94694 17.9689 10.53Z" fill="white"/>
</mask>
<g mask="url(#mask0_7_55)">
<path d="M8.70891 16.115C8.92734 16.1207 9.14471 16.0827 9.34821 16.0031C9.55172 15.9236 9.73725 15.8041 9.89388 15.6517C10.0505 15.4994 10.1751 15.3172 10.2603 15.116C10.3454 14.9148 10.3895 14.6986 10.3898 14.4801C10.3901 14.2616 10.3467 14.0452 10.2622 13.8437C10.1776 13.6422 10.0536 13.4597 9.89746 13.3069C9.7413 13.154 9.55613 13.034 9.35287 12.9538C9.14961 12.8736 8.93236 12.8349 8.71391 12.84C8.71875 12.7935 8.72109 12.7468 8.72091 12.7C8.71695 12.263 8.53988 11.8454 8.22853 11.5387C7.91717 11.232 7.49693 11.0613 7.05991 11.064H5.83191C5.71178 11.9713 5.79236 12.894 6.06797 13.7668C6.34358 14.6396 6.80748 15.4412 7.42691 16.115H8.70891Z" fill="#F2F2F2"/>
<path d="M18.0449 10.815C18.0449 10.8 18.0449 10.785 18.0379 10.771C17.8401 9.70092 17.3539 8.70513 16.6319 7.89099C16.5382 7.85304 16.4415 7.82294 16.3429 7.80099C16.0801 7.72602 15.8037 7.71166 15.5346 7.75897C15.2655 7.80629 15.0106 7.91407 14.7892 8.07417C14.5677 8.23428 14.3855 8.44255 14.2562 8.68329C14.127 8.92403 14.054 9.19097 14.0429 9.46399C13.9764 9.45632 13.9097 9.45198 13.8429 9.45099C13.4333 9.45096 13.0368 9.59567 12.7236 9.85957C12.4103 10.1235 12.2004 10.4896 12.1309 10.8932C12.0614 11.2969 12.1368 11.7121 12.3437 12.0656C12.5507 12.419 12.8758 12.688 13.2619 12.825C13.4342 12.8925 13.6178 12.9265 13.8029 12.925H15.8329C16.648 12.308 17.3901 11.6001 18.0449 10.815Z" fill="#F2F2F2"/>
</g>
<path d="M5.95402 8.26601C5.93087 8.26614 5.90792 8.26168 5.88651 8.25288C5.8651 8.24408 5.84564 8.23113 5.82927 8.21476C5.8129 8.19839 5.79994 8.17893 5.79114 8.15752C5.78235 8.1361 5.77789 8.11316 5.77802 8.09001C5.77722 7.55743 5.56531 7.0469 5.18872 6.67031C4.81213 6.29372 4.30159 6.0818 3.76902 6.08101C3.72251 6.08101 3.6779 6.0626 3.64492 6.02981C3.61194 5.99702 3.59328 5.95251 3.59302 5.90601C3.59302 5.85933 3.61156 5.81456 3.64457 5.78156C3.67757 5.74855 3.72234 5.73001 3.76902 5.73001C4.30177 5.72922 4.81245 5.51716 5.18907 5.14036C5.56569 4.76355 5.77749 4.25276 5.77802 3.72001C5.77789 3.69686 5.78235 3.67391 5.79114 3.6525C5.79994 3.63109 5.8129 3.61163 5.82927 3.59526C5.84564 3.57889 5.8651 3.56593 5.88651 3.55714C5.90792 3.54834 5.93087 3.54388 5.95402 3.54401C5.97717 3.54388 6.00011 3.54834 6.02153 3.55714C6.04294 3.56593 6.06239 3.57889 6.07876 3.59526C6.09513 3.61163 6.10809 3.63109 6.11689 3.6525C6.12569 3.67391 6.13015 3.69686 6.13002 3.72001C6.13081 4.25259 6.34273 4.76312 6.71932 5.13971C7.09591 5.5163 7.60644 5.72822 8.13902 5.72901C8.16217 5.72888 8.18511 5.73334 8.20653 5.74214C8.22794 5.75093 8.24739 5.76389 8.26376 5.78026C8.28013 5.79663 8.29309 5.81609 8.30189 5.8375C8.31069 5.85891 8.31515 5.88186 8.31502 5.90501C8.31515 5.92816 8.31069 5.9511 8.30189 5.97252C8.29309 5.99393 8.28013 6.01339 8.26376 6.02976C8.24739 6.04613 8.22794 6.05908 8.20653 6.06788C8.18511 6.07668 8.16217 6.08114 8.13902 6.08101C7.60636 6.08154 7.09567 6.29337 6.71902 6.67002C6.34238 7.04666 6.13055 7.55735 6.13002 8.09001C6.12976 8.13661 6.11113 8.18122 6.07818 8.21417C6.04523 8.24712 6.00061 8.26575 5.95402 8.26601Z" fill="#50E6FF"/>
<path d="M18.611 20.456C18.5737 20.456 18.5378 20.4412 18.5113 20.4147C18.4849 20.3883 18.47 20.3524 18.47 20.315C18.4695 19.889 18.3 19.4805 17.9988 19.1793C17.6975 18.878 17.2891 18.7085 16.863 18.708C16.8258 18.708 16.7901 18.6933 16.7637 18.6671C16.7373 18.6408 16.7223 18.6052 16.722 18.568C16.722 18.5306 16.7369 18.4948 16.7633 18.4683C16.7898 18.4419 16.8257 18.427 16.863 18.427C17.2892 18.4268 17.6978 18.2574 17.9991 17.956C18.3004 17.6547 18.4698 17.2461 18.47 16.82C18.47 16.7826 18.4849 16.7468 18.5113 16.7203C18.5378 16.6939 18.5737 16.679 18.611 16.679C18.6484 16.679 18.6843 16.6939 18.7107 16.7203C18.7372 16.7468 18.752 16.7826 18.752 16.82C18.7523 17.2461 18.9217 17.6547 19.223 17.956C19.5243 18.2574 19.9329 18.4268 20.359 18.427C20.3964 18.427 20.4323 18.4419 20.4587 18.4683C20.4852 18.4948 20.5 18.5306 20.5 18.568C20.5 18.6054 20.4852 18.6413 20.4587 18.6677C20.4323 18.6942 20.3964 18.709 20.359 18.709C19.933 18.7095 19.5246 18.879 19.2233 19.1803C18.9221 19.4815 18.7526 19.89 18.752 20.316C18.7518 20.3532 18.7368 20.3888 18.7104 20.4151C18.684 20.4413 18.6483 20.456 18.611 20.456Z" fill="#50E6FF"/>
<path d="M19.691 7.24811C19.062 6.20111 17.591 5.79311 15.536 6.09911C14.8319 6.19889 14.136 6.34996 13.454 6.55111C13.9951 6.7379 14.5089 6.99583 14.982 7.31811C15.223 7.26511 15.465 7.20211 15.697 7.16711C16.0619 7.11028 16.4306 7.08054 16.8 7.07811C17.1611 7.02605 17.5294 7.06512 17.8716 7.19174C18.2137 7.31836 18.5188 7.52852 18.759 7.80311C19.142 8.44111 18.819 9.53211 17.873 10.8031C16.5583 12.4395 14.9472 13.8138 13.124 14.8541C11.3416 15.9665 9.36594 16.7339 7.29998 17.1161C5.73598 17.3501 4.61798 17.1161 4.23498 16.4801C3.85198 15.8441 4.17498 14.7501 5.12098 13.4851C5.23798 13.3281 5.26698 13.2511 5.39998 13.0931C5.33746 12.551 5.34621 12.003 5.42598 11.4631C5.00082 11.8893 4.60963 12.348 4.25598 12.8351C3.01698 14.4921 2.68098 15.9821 3.30898 17.0291C3.64072 17.4729 4.08318 17.8219 4.5921 18.0411C5.10101 18.2603 5.65856 18.342 6.20898 18.2781C6.62788 18.2759 7.04604 18.2425 7.45998 18.1781C9.66526 17.7756 11.775 16.9614 13.679 15.7781C15.6235 14.6653 17.3405 13.1956 18.74 11.4461C19.983 9.78511 20.319 8.29611 19.691 7.24811Z" fill="#50E6FF"/>
<defs>
<linearGradient id="paint0_linear_7_55" x1="12" y1="0" x2="12" y2="24" gradientUnits="userSpaceOnUse">
<stop stop-color="#009EFB"/>
<stop offset="1" stop-color="#68C185"/>
</linearGradient>
<radialGradient id="paint1_radial_7_55" cx="0" cy="0" r="1" gradientUnits="userSpaceOnUse" gradientTransform="translate(11.9527 11.954) scale(6.16834 6.11476)">
<stop offset="0.183" stop-color="#5EA0EF"/>
<stop offset="1" stop-color="#0078D4"/>
</radialGradient>
</defs>
</svg>
