<svg width="150" height="150" viewBox="0 0 150 150" fill="none" xmlns="http://www.w3.org/2000/svg">
<g clip-path="url(#clip0_1_2)">
<path fill-rule="evenodd" clip-rule="evenodd" d="M75 0C116.421 0 150 33.5786 150 75C150 116.421 116.421 150 75 150C33.5786 150 0 116.421 0 75C0 33.5786 33.5786 0 75 0ZM116.348 97.5396C114.888 88.3099 107.579 81.0023 98.349 79.5401V97.5396H116.348ZM94.9479 122.607C105.739 122.607 114.712 114.678 116.348 104.341H96.912L87.1951 121.171C89.6036 122.097 92.2175 122.607 94.9479 122.607ZM73.2809 100.939C73.2809 107.724 76.4153 113.788 81.3105 117.761L91.5478 100.028V79.5401C81.2104 81.1764 73.2809 90.1494 73.2809 100.939ZM64.4692 104.272C65.2043 104.272 65.9402 104.255 66.6712 104.23C66.5479 103.15 66.4796 102.053 66.4796 100.939C66.4796 97.4247 67.1215 94.0576 68.2925 90.9466C67.0301 91.0148 65.7548 91.0509 64.4692 91.0509C56.8198 91.0509 49.481 89.7926 43.807 87.5074C42.2109 86.8658 40.778 86.1577 39.5115 85.3928V95.9581C39.9026 97.3649 41.8729 99.4204 46.3468 101.222C51.235 103.189 57.67 104.272 64.4692 104.272ZM45.7301 30.5892C41.1398 32.5002 39.5115 34.5888 39.5115 35.799C39.5115 37.0102 41.1398 39.0987 45.7301 41.008C50.6883 43.0714 57.353 44.2063 64.4985 44.2063C71.6446 44.2063 78.3094 43.0714 83.2655 41.008C87.8558 39.099 89.4861 37.0102 89.4861 35.799C89.4861 34.5888 87.8558 32.5002 83.2655 30.5892C78.3094 28.5275 71.6446 27.3926 64.4985 27.3926C57.3533 27.3926 50.6883 28.5275 45.7301 30.5892ZM89.4861 55.6321V45.4939C88.4022 46.1376 87.1989 46.7373 85.8773 47.2878C80.1108 49.6852 72.5197 51.0076 64.4982 51.0076C56.4776 51.0076 48.8865 49.6852 43.12 47.2878C41.7964 46.7373 40.5932 46.1376 39.5115 45.4939V55.9099C39.9006 57.3176 41.8688 59.3751 46.3468 61.1769C51.2329 63.1453 57.67 64.227 64.4692 64.227C71.4378 64.227 77.9862 63.0979 82.9105 61.0474C87.4688 59.1475 89.2866 57.0258 89.4861 55.6321ZM72.2689 83.7524C76.4212 78.2877 82.5003 74.3622 89.4861 73.0008V65.3212C88.3069 66.046 86.9845 66.7178 85.5246 67.3254C79.7924 69.7148 72.3161 71.0282 64.4692 71.0282C56.8198 71.0282 49.481 69.772 43.807 67.4868C42.2109 66.8432 40.778 66.1354 39.5115 65.3701V75.9334C39.9006 77.3382 41.8688 79.3975 46.3468 81.1995C51.2329 83.1659 57.67 84.2496 64.4692 84.2496C67.1364 84.2499 69.7523 84.0823 72.2689 83.7524Z" fill="url(#paint0_linear_1_2)"/>
</g>
<defs>
<linearGradient id="paint0_linear_1_2" x1="75" y1="150" x2="75" y2="0" gradientUnits="userSpaceOnUse">
<stop stop-color="#009EFB"/>
<stop offset="1" stop-color="#68C185"/>
</linearGradient>
<clipPath id="clip0_1_2">
<rect width="150" height="150" fill="white"/>
</clipPath>
</defs>
</svg>
