<svg width="85" height="75" viewBox="0 0 85 75" fill="none" xmlns="http://www.w3.org/2000/svg">
    <path d="M1.45557 64.76V13.1065C1.83357 13.6321 2.30938 14.1334 2.86671 14.6076C4.36997 15.8865 6.51792 17.0159 9.1345 17.9546C14.3719 19.8336 21.594 20.9867 29.6045 20.9867C37.542 20.9867 44.7517 19.8334 49.9948 17.9546C52.6142 17.016 54.7695 15.8869 56.2794 14.6083C56.8424 14.1316 57.3231 13.6273 57.7045 13.0983V64.76C57.7045 65.9036 57.0274 67.0937 55.635 68.2617C54.2481 69.4252 52.2122 70.5122 49.655 71.4435C44.545 73.3044 37.455 74.5067 29.6045 74.5067H29.2149C21.4839 74.4826 14.4791 73.3282 9.42472 71.4976C6.8954 70.5815 4.88103 69.5056 3.50846 68.3386C2.13341 67.1696 1.45557 65.9581 1.45557 64.76Z" fill="url(#paint0_linear_3_17)" stroke="black"/>
    <path d="M57.7045 10.24C57.7045 11.45 57.0207 12.6704 55.6332 13.8452C54.2481 15.018 52.2142 16.0971 49.6575 17.0133C44.5483 18.844 37.458 19.9867 29.6045 19.9867C21.7509 19.9867 14.6482 18.8441 9.52666 17.0131C6.96371 16.0969 4.92363 15.0177 3.53383 13.8447C2.1416 12.6695 1.45557 11.4492 1.45557 10.24C1.45557 9.02864 2.13473 7.80812 3.5147 6.63408C4.89283 5.46161 6.91877 4.38273 9.47219 3.46667C14.5748 1.63607 21.6771 0.493332 29.6045 0.493332C37.5288 0.493332 44.6185 1.69569 49.7095 3.55628C52.2572 4.48738 54.2789 5.57413 55.6541 6.737C57.0341 7.90397 57.7045 9.09427 57.7045 10.24Z" fill="#E8E8E8" stroke="black"/>
    <path d="M51.0555 9.41833C51.0555 10.0679 50.6088 10.7922 49.5497 11.5379C48.5047 12.2737 46.9592 12.9586 45.0019 13.543C41.0939 14.7098 35.6565 15.4433 29.6044 15.4433C23.5523 15.4433 18.115 14.7098 14.2069 13.543C12.2497 12.9586 10.7042 12.2737 9.65917 11.5379C8.60007 10.7922 8.15332 10.0679 8.15332 9.41833C8.15332 8.76875 8.60007 8.04445 9.65917 7.29871C10.7042 6.5629 12.2497 5.87805 14.2069 5.29368C18.115 4.12685 23.5523 3.39333 29.6044 3.39333C35.6573 3.39333 41.0948 4.11493 45.0026 5.27575C46.9598 5.85712 48.5047 6.54037 49.5491 7.27793C50.6062 8.02442 51.0555 8.7547 51.0555 9.41833Z" fill="#50E6FF" stroke="black"/>
    <path d="M29.5918 11.4165L29.6045 11.4168L29.6173 11.4165C34.8956 11.2814 40.1612 11.9328 45.2375 13.3462C40.1748 14.8337 34.9036 15.5262 29.6168 15.3952L29.6045 15.3949L29.5922 15.3952C24.2912 15.5251 19.0059 14.8326 13.9282 13.3461C19.0195 11.9335 24.2992 11.2822 29.5918 11.4165Z" fill="#B31919" stroke="black"/>
    <path d="M46.5089 48.085V48.585H47.0089H53.4511V50.92H43.5V33.6983H46.5089V48.085ZM14.9332 41.1965L14.9517 41.2046L14.9707 41.2111C16.3134 41.6729 17.5445 42.4041 18.5868 43.3583C19.2345 44.1175 19.5684 45.0894 19.5228 46.0803L19.5218 46.1012L19.5226 46.1221C19.5485 46.8119 19.4071 47.4981 19.1099 48.1233C18.8145 48.7447 18.3737 49.2883 17.8234 49.709C16.3833 50.6843 14.6564 51.1617 12.9119 51.0657L12.8877 51.0644L12.8635 51.0654C11.3555 51.1285 9.85633 50.8271 8.49556 50.1895V47.4718C9.77595 48.3463 11.3005 48.823 12.8718 48.8266C13.6639 48.8642 14.4479 48.6506 15.1095 48.2162C15.4111 48.0279 15.6589 47.7651 15.8281 47.4528C15.9985 47.1384 16.0831 46.785 16.0732 46.4277L16.0731 46.4257C16.0621 46.0823 15.9807 45.7448 15.8339 45.4337C15.6871 45.1227 15.4781 44.8449 15.2199 44.6169L15.2039 44.6027L15.1867 44.59C14.3094 43.9395 13.3536 43.3996 12.3416 42.9827L12.3201 42.9738L12.2979 42.967C11.2177 42.6353 10.2662 41.9865 9.56964 41.1079C8.87498 40.2317 8.46651 39.1682 8.39741 38.0585C8.38176 37.3897 8.52316 36.7262 8.81082 36.12C9.09934 35.512 9.52721 34.9781 10.061 34.5608C11.3603 33.5708 12.9773 33.0752 14.6168 33.1659L14.6278 33.1665L14.6387 33.1666C16.0092 33.1823 17.3648 33.4393 18.6422 33.9246V36.5999C17.5019 35.9762 16.2226 35.6308 14.9115 35.5987C14.1378 35.5483 13.3676 35.7446 12.7142 36.1596L12.6989 36.1693L12.6844 36.18C12.4098 36.3837 12.1863 36.6481 12.0322 36.9528C11.8789 37.256 11.7986 37.5904 11.7978 37.9298C11.7856 38.5879 12.0233 39.2259 12.4625 39.7179L12.4941 39.7533L12.5317 39.7821C13.2715 40.3481 14.0779 40.823 14.9332 41.1965ZM37.6921 47.4739L37.6786 47.4946L37.6673 47.5164C36.8753 49.043 35.5626 50.2453 33.9597 50.9098L33.2308 51.2119L33.8152 51.742L38.1845 55.705H34.3238L30.6593 51.6641L30.5311 51.5228L30.3414 51.5028C28.8654 51.3468 27.4491 50.8433 26.2112 50.0347L26.2043 50.0302L26.1973 50.0259C24.9664 49.2787 23.9669 48.2131 23.3062 46.9453C22.6307 45.4993 22.2809 43.9257 22.2809 42.3333C22.2809 40.7375 22.6322 39.1606 23.3106 37.7121L23.3107 37.7121L23.3147 37.7031C23.9423 36.2912 24.9969 35.105 26.3347 34.3079C27.7401 33.5196 29.3367 33.1248 30.9528 33.1663C32.5061 33.2543 34.0053 33.7597 35.2888 34.6275L35.3011 34.6358L35.3137 34.6433C36.5541 35.3793 37.5559 36.4488 38.2029 37.7259L38.2028 37.7259L38.2051 37.7303C38.9418 39.1497 39.3089 40.7279 39.2735 42.3222L39.2734 42.3244C39.2406 44.1524 38.6932 45.9356 37.6921 47.4739ZM26.7418 46.8607L26.7516 46.8756L26.7624 46.8898C27.2028 47.4676 27.777 47.9316 28.436 48.2432C29.0896 48.5522 29.8078 48.7025 30.5313 48.682C31.2561 48.7086 31.9774 48.5672 32.6376 48.2688C33.2287 48.0017 33.7562 47.6153 34.1866 47.135H34.4032L34.5531 46.9323C35.5258 45.6173 36.0098 44.0101 35.923 42.3823C36.0154 40.7359 35.5539 39.1058 34.6108 37.7466L34.6109 37.7466L34.6059 37.7397C34.1769 37.1433 33.605 36.6622 32.9422 36.3394C32.2848 36.0191 31.5581 35.8642 30.8264 35.888C30.089 35.8648 29.3566 36.0192 28.6922 36.3382C28.0233 36.6594 27.4435 37.138 27.0038 37.7325C26.0073 39.0543 25.5052 40.6774 25.5834 42.3249C25.4536 43.9219 25.8609 45.5165 26.7418 46.8607Z" fill="url(#paint1_radial_3_17)" stroke="black"/>
    <path d="M52.4356 0.976669H70.28C70.5253 0.976669 70.7593 1.07304 70.931 1.24278C71.1025 1.41232 71.1978 1.64105 71.1978 1.87834V11.9317C71.1978 12.4379 71.4013 12.9222 71.7615 13.2784C72.1216 13.6344 72.6088 13.8333 73.1156 13.8333H83.3823C83.6275 13.8333 83.8616 13.9297 84.0333 14.0994C84.2048 14.269 84.3 14.4977 84.3 14.735V39.9167C84.3 40.154 84.2048 40.3827 84.0333 40.5522C83.8616 40.722 83.6275 40.8183 83.3823 40.8183H52.4356C52.1904 40.8183 51.9563 40.722 51.7846 40.5522C51.6131 40.3827 51.5178 40.1539 51.5178 39.9167V1.87834C51.5178 1.64105 51.6131 1.41232 51.7846 1.24278C51.9563 1.07304 52.1904 0.976669 52.4356 0.976669Z" fill="white" stroke="black"/>
    <mask id="path-7-inside-1_3_17" fill="white">
    <path d="M69.6445 2.265V11.9317C69.6445 12.8546 70.0153 13.7398 70.6755 14.3924C71.3356 15.045 72.2309 15.4117 73.1645 15.4117H82.9423V39.5783H52.7778V2.265H69.4978M70.1823 0.18667H52.0934C51.9031 0.18018 51.7135 0.211638 51.5358 0.279167C51.3581 0.346696 51.196 0.448912 51.0591 0.579721C50.9222 0.71053 50.8134 0.867252 50.7391 1.04054C50.6648 1.21383 50.6266 1.40013 50.6267 1.58834V40.255C50.6266 40.4432 50.6648 40.6295 50.7391 40.8028C50.8134 40.9761 50.9222 41.1328 51.0591 41.2636C51.196 41.3944 51.3581 41.4967 51.5358 41.5642C51.7135 41.6317 51.9031 41.6632 52.0934 41.6567H83.48C83.8561 41.6567 84.2167 41.509 84.4826 41.2461C84.7484 40.9833 84.8978 40.6268 84.8978 40.255V14.6383C84.8764 14.3073 84.7369 13.9945 84.5042 13.7555C84.2714 13.5166 83.9605 13.367 83.6267 13.3333H73.1645C72.7885 13.3333 72.4278 13.1857 72.162 12.9228C71.8961 12.6599 71.7467 12.3034 71.7467 11.9317V1.58834C71.7467 1.21659 71.5973 0.860072 71.3314 0.597209C71.0656 0.334345 70.7049 0.18667 70.3289 0.18667H70.1823Z"/>
    </mask>
    <path d="M69.6445 2.265V11.9317C69.6445 12.8546 70.0153 13.7398 70.6755 14.3924C71.3356 15.045 72.2309 15.4117 73.1645 15.4117H82.9423V39.5783H52.7778V2.265H69.4978M70.1823 0.18667H52.0934C51.9031 0.18018 51.7135 0.211638 51.5358 0.279167C51.3581 0.346696 51.196 0.448912 51.0591 0.579721C50.9222 0.71053 50.8134 0.867252 50.7391 1.04054C50.6648 1.21383 50.6266 1.40013 50.6267 1.58834V40.255C50.6266 40.4432 50.6648 40.6295 50.7391 40.8028C50.8134 40.9761 50.9222 41.1328 51.0591 41.2636C51.196 41.3944 51.3581 41.4967 51.5358 41.5642C51.7135 41.6317 51.9031 41.6632 52.0934 41.6567H83.48C83.8561 41.6567 84.2167 41.509 84.4826 41.2461C84.7484 40.9833 84.8978 40.6268 84.8978 40.255V14.6383C84.8764 14.3073 84.7369 13.9945 84.5042 13.7555C84.2714 13.5166 83.9605 13.367 83.6267 13.3333H73.1645C72.7885 13.3333 72.4278 13.1857 72.162 12.9228C71.8961 12.6599 71.7467 12.3034 71.7467 11.9317V1.58834C71.7467 1.21659 71.5973 0.860072 71.3314 0.597209C71.0656 0.334345 70.7049 0.18667 70.3289 0.18667H70.1823Z" fill="#50E6FF"/>
    <path d="M73.1645 15.4117V14.4117V15.4117ZM82.9423 15.4117H83.9423V14.4117H82.9423V15.4117ZM82.9423 39.5783V40.5783H83.9423V39.5783H82.9423ZM52.7778 39.5783H51.7778V40.5783H52.7778V39.5783ZM52.7778 2.265V1.265H51.7778V2.265H52.7778ZM52.0934 0.18667L52.0593 1.18609L52.0763 1.18667H52.0934V0.18667ZM50.6267 1.58834L51.6267 1.58834L51.6267 1.58774L50.6267 1.58834ZM50.6267 40.255L51.6267 40.2556V40.255H50.6267ZM52.0934 41.6567V40.6567H52.0763L52.0593 40.6573L52.0934 41.6567ZM84.8978 40.255H85.8978H84.8978ZM84.8978 14.6383H85.8978V14.606L85.8957 14.5738L84.8978 14.6383ZM83.6267 13.3333L83.727 12.3384L83.677 12.3333H83.6267V13.3333ZM71.7467 11.9317H72.7467H71.7467ZM71.7467 1.58834H70.7467H71.7467ZM70.3289 0.18667V1.18667V0.18667ZM68.6445 2.265V11.9317H70.6445V2.265H68.6445ZM68.6445 11.9317C68.6445 13.1236 69.1235 14.2643 69.9724 15.1035L71.3785 13.6813C70.9072 13.2153 70.6445 12.5857 70.6445 11.9317H68.6445ZM69.9724 15.1035C70.8209 15.9424 71.9694 16.4117 73.1645 16.4117V14.4117C72.4925 14.4117 71.8503 14.1476 71.3785 13.6813L69.9724 15.1035ZM73.1645 16.4117H82.9423V14.4117H73.1645V16.4117ZM81.9423 15.4117V39.5783H83.9423V15.4117H81.9423ZM82.9423 38.5783H52.7778V40.5783H82.9423V38.5783ZM53.7778 39.5783V2.265H51.7778V39.5783H53.7778ZM52.7778 3.265H69.4978V1.265H52.7778V3.265ZM70.1823 -0.81333H52.0934V1.18667H70.1823V-0.81333ZM52.1275 -0.812748C51.8046 -0.823761 51.4826 -0.770403 51.1806 -0.655609L51.891 1.21394C51.9443 1.19368 52.0016 1.18412 52.0593 1.18609L52.1275 -0.812748ZM51.1806 -0.655609C50.8785 -0.540808 50.6021 -0.366751 50.3682 -0.143224L51.75 1.30267C51.7899 1.26458 51.8377 1.2342 51.891 1.21394L51.1806 -0.655609ZM50.3682 -0.143224C50.1343 0.0803306 49.9476 0.348807 49.82 0.646522L51.6582 1.43456C51.6792 1.3857 51.7102 1.34073 51.75 1.30267L50.3682 -0.143224ZM49.82 0.646522C49.6924 0.944274 49.6265 1.26482 49.6267 1.58894L51.6267 1.58774C51.6267 1.53544 51.6373 1.48338 51.6582 1.43456L49.82 0.646522ZM49.6267 1.58834V40.255H51.6267V1.58834H49.6267ZM49.6267 40.2544C49.6265 40.5785 49.6924 40.8991 49.82 41.1968L51.6582 40.4088C51.6373 40.36 51.6267 40.3079 51.6267 40.2556L49.6267 40.2544ZM49.82 41.1968C49.9476 41.4945 50.1343 41.763 50.3682 41.9866L51.75 40.5407C51.7102 40.5026 51.6792 40.4576 51.6582 40.4088L49.82 41.1968ZM50.3682 41.9866C50.6021 42.2101 50.8785 42.3842 51.1806 42.499L51.891 40.6294C51.8377 40.6092 51.7899 40.5788 51.75 40.5407L50.3682 41.9866ZM51.1806 42.499C51.4826 42.6138 51.8046 42.6671 52.1275 42.6561L52.0593 40.6573C52.0016 40.6592 51.9443 40.6497 51.891 40.6294L51.1806 42.499ZM52.0934 42.6567H83.48V40.6567H52.0934V42.6567ZM83.48 42.6567C84.1176 42.6567 84.7313 42.4064 85.1856 41.9573L83.7795 40.535C83.702 40.6116 83.5945 40.6567 83.48 40.6567V42.6567ZM85.1856 41.9573C85.6403 41.5078 85.8978 40.8957 85.8978 40.255L83.8978 40.255C83.8978 40.3578 83.8566 40.4588 83.7795 40.535L85.1856 41.9573ZM85.8978 40.255V14.6383H83.8978V40.255H85.8978ZM85.8957 14.5738C85.8588 14.0034 85.6186 13.4665 85.2205 13.0578L83.7878 14.4533C83.8553 14.5225 83.894 14.6111 83.8999 14.7029L85.8957 14.5738ZM85.2205 13.0578C84.8227 12.6493 84.2932 12.3954 83.727 12.3384L83.5264 14.3283C83.6278 14.3385 83.7202 14.3838 83.7878 14.4533L85.2205 13.0578ZM83.6267 12.3333H73.1645V14.3333H83.6267V12.3333ZM73.1645 12.3333C73.05 12.3333 72.9425 12.2883 72.865 12.2117L71.4589 13.6339C71.9132 14.083 72.5269 14.3333 73.1645 14.3333V12.3333ZM72.865 12.2117C72.7879 12.1354 72.7467 12.0345 72.7467 11.9317L70.7467 11.9317C70.7467 12.5723 71.0042 13.1844 71.4589 13.6339L72.865 12.2117ZM72.7467 11.9317V1.58834H70.7467V11.9317H72.7467ZM72.7467 1.58834C72.7467 0.947665 72.4892 0.335571 72.0345 -0.113927L70.6284 1.30834C70.7055 1.38457 70.7467 1.48552 70.7467 1.58834L72.7467 1.58834ZM72.0345 -0.113927C71.5802 -0.563042 70.9665 -0.81333 70.3289 -0.81333V1.18667C70.4434 1.18667 70.5509 1.23173 70.6284 1.30834L72.0345 -0.113927ZM70.3289 -0.81333H70.1823V1.18667H70.3289V-0.81333Z" fill="black" mask="url(#path-7-inside-1_3_17)"/>
    <path d="M71.7578 1.47764L83.2866 12.8333H73.6586C73.1496 12.8221 72.6662 12.6145 72.3115 12.2566C71.9559 11.8979 71.7577 11.4167 71.7578 10.9168V10.9167V1.47764Z" fill="#32BEDD" stroke="black"/>
    <path d="M59.2311 22.92H76.5378C76.9961 22.92 77.3578 23.2858 77.3578 23.725C77.3578 24.1642 76.9961 24.53 76.5378 24.53H59.2311C58.7729 24.53 58.4111 24.1642 58.4111 23.725C58.4111 23.2858 58.7729 22.92 59.2311 22.92Z" fill="#32BEDD" stroke="black"/>
    <path d="M59.2311 27.3183H76.5378C76.9961 27.3183 77.3578 27.6841 77.3578 28.1233C77.3578 28.5625 76.9961 28.9283 76.5378 28.9283H59.2311C58.7729 28.9283 58.4111 28.5625 58.4111 28.1233C58.4111 27.6841 58.7729 27.3183 59.2311 27.3183Z" fill="#32BEDD" stroke="black"/>
    <path d="M59.1334 31.8133H67.3956C67.7999 31.8133 68.1178 32.1358 68.1178 32.5217C68.1178 32.9075 67.7999 33.23 67.3956 33.23H59.1334C58.7291 33.23 58.4111 32.9075 58.4111 32.5217C58.4111 32.1358 58.7291 31.8133 59.1334 31.8133Z" fill="#32BEDD" stroke="black"/>
    <defs>
    <linearGradient id="paint0_linear_3_17" x1="0.955566" y1="42.6233" x2="58.2045" y2="42.6233" gradientUnits="userSpaceOnUse">
    <stop stop-color="#00A184"/>
    <stop offset="0.07" stop-color="#0060A9"/>
    <stop offset="0.36" stop-color="#0071C8"/>
    <stop offset="0.52" stop-color="#0078D4"/>
    <stop offset="0.64" stop-color="#0074CD"/>
    <stop offset="0.82" stop-color="#006ABB"/>
    <stop offset="1" stop-color="#005BA1"/>
    </linearGradient>
    <radialGradient id="paint1_radial_3_17" cx="0" cy="0" r="1" gradientUnits="userSpaceOnUse" gradientTransform="translate(31.1689 44.4117) scale(31.5822 31.2233)">
    <stop stop-color="#F2F2F2"/>
    <stop offset="0.58" stop-color="#EEEEEE"/>
    <stop offset="1" stop-color="#E6E6E6"/>
    </radialGradient>
    </defs>
    </svg>
    
    