<svg width="120" height="120" viewBox="0 0 120 120" fill="none" xmlns="http://www.w3.org/2000/svg">
<g clip-path="url(#clip0_5_32)">
<path d="M60 120C93.1371 120 120 93.1371 120 60C120 26.8629 93.1371 0 60 0C26.8629 0 0 26.8629 0 60C0 93.1371 26.8629 120 60 120Z" fill="url(#paint0_linear_5_32)"/>
<path fill-rule="evenodd" clip-rule="evenodd" d="M18.2313 80.4305H59.9766L100.83 39.5695H18.2313V80.4305Z" fill="#0339F9"/>
<path fill-rule="evenodd" clip-rule="evenodd" d="M67.2496 47.7417H59.092L59.1192 66.9281L52.0157 47.7354H44.9723L38.9085 63.7645C38.2638 59.6857 34.0471 58.2783 30.7291 57.2241C28.5381 56.5202 26.2127 55.4852 26.2361 54.341C26.2542 53.4021 27.4802 52.5314 29.9163 52.6613C31.5508 52.7494 32.9946 52.8811 35.8666 54.2684L38.6906 49.347C36.0719 48.0141 32.4506 47.1722 29.4815 47.1696H29.4635C26.0013 47.1696 23.1182 48.2911 21.3314 50.1389C20.0856 51.4282 19.4137 53.0681 19.3863 54.8815C19.3408 57.3766 20.2553 59.1455 22.1765 60.5592C23.8 61.7487 25.8766 62.5205 27.7064 63.0872C29.9627 63.7863 31.806 64.3948 31.7833 65.6895C31.7653 66.1617 31.5871 66.6028 31.2475 66.9588C30.6846 67.5399 29.8221 67.7578 28.6279 67.7815C26.3242 67.8305 24.6173 67.4681 21.8969 65.8601L19.3844 70.845C22.102 72.3905 24.9869 73.1658 28.2649 73.1658L29.0022 73.1604C31.8553 73.1086 34.1706 72.4249 36.0103 70.9448C36.1155 70.8605 36.2099 70.7752 36.3081 70.6887L35.9995 72.2796L42.8821 72.2578L44.1171 69.0961C45.4155 69.5393 46.8921 69.7845 48.4591 69.7845C49.9863 69.7845 51.4228 69.552 52.6968 69.1343L53.5577 72.2578L65.9067 72.2695L65.9367 65.0618H68.5645C74.916 65.0618 78.6707 61.8293 78.6707 56.4084C78.6688 50.3714 75.0185 47.7417 67.2496 47.7417ZM48.4591 64.1424C47.5101 64.1424 46.6204 63.9771 45.8549 63.6865L48.43 55.5553H48.4799L51.0133 63.7092C50.2506 63.9816 49.3816 64.1424 48.4582 64.1424H48.4591ZM67.7271 59.4706H65.9346V52.9174H67.728C70.116 52.9174 72.0229 53.7129 72.0229 56.1518C72.021 58.676 70.116 59.4706 67.728 59.4706" fill="white"/>
</g>
<defs>
<linearGradient id="paint0_linear_5_32" x1="60" y1="0" x2="60" y2="120" gradientUnits="userSpaceOnUse">
<stop stop-color="#68C185"/>
<stop offset="1" stop-color="#009EFB"/>
</linearGradient>
<clipPath id="clip0_5_32">
<rect width="120" height="120" fill="white"/>
</clipPath>
</defs>
</svg>
